<svg width="25" height="24" viewBox="0 0 25 24" fill="none" xmlns="http://www.w3.org/2000/svg">
<g id="Group 2">
<path id="Vector" d="M7.84557 14.1141H3.59256C3.10983 14.1141 2.6271 14.1141 2.13605 14.1141C1.8281 14.1141 1.52847 14.1141 1.38699 13.7646C1.2455 13.415 1.4286 13.1903 1.645 12.9323L4.97417 9.51157L12.9059 1.3884C13.0085 1.2745 13.1198 1.16876 13.2388 1.07213C13.3286 1.00395 13.4382 0.967041 13.5509 0.967041C13.6637 0.967041 13.7733 1.00395 13.863 1.07213C13.9659 1.12842 14.048 1.21614 14.0975 1.32247C14.1469 1.42879 14.161 1.54814 14.1377 1.66306C14.1077 1.78504 14.0687 1.90465 14.0212 2.02094C13.655 2.9115 13.2888 3.81037 12.9309 4.70092C12.9309 4.8008 12.856 4.90067 12.806 5.02552H13.1889C15.8189 5.02552 18.4573 5.02552 21.0873 5.02552C21.319 5.00585 21.5521 5.03643 21.7708 5.11516C21.9896 5.1939 22.1887 5.31893 22.3547 5.48172C22.5206 5.64451 22.6495 5.84121 22.7324 6.05839C22.8153 6.27556 22.8504 6.50807 22.8352 6.74004C22.7935 7.61395 22.8352 8.47953 22.8352 9.35344C22.8324 9.38389 22.8324 9.41453 22.8352 9.44499H23.6674C23.8382 9.43116 24.0099 9.45461 24.1707 9.51372C24.3314 9.57282 24.4774 9.66617 24.5986 9.78729C24.7197 9.90841 24.813 10.0544 24.8721 10.2152C24.9312 10.376 24.9547 10.5477 24.9409 10.7184V13.2735C24.9554 13.4484 24.9311 13.6244 24.8696 13.7887C24.8082 13.9531 24.7112 14.1019 24.5855 14.2244C24.4598 14.3469 24.3086 14.4401 24.1427 14.4973C23.9768 14.5545 23.8003 14.5743 23.6258 14.5553H22.8518V17.3934C22.8627 17.6046 22.8289 17.8158 22.7527 18.0131C22.6766 18.2105 22.5597 18.3895 22.4098 18.5387C22.2598 18.6879 22.0801 18.8038 21.8824 18.8789C21.6846 18.9541 21.4733 18.9867 21.2621 18.9747H9.61003C9.50499 18.971 9.40044 18.9907 9.30398 19.0325C9.20752 19.0742 9.12158 19.137 9.05239 19.2161C7.94267 20.3813 6.80798 21.5437 5.64832 22.7034L5.52348 22.8282C5.43691 22.9341 5.31448 23.0044 5.17945 23.0259C5.04442 23.0474 4.9062 23.0185 4.79106 22.9448C4.66795 22.8715 4.57613 22.7555 4.53314 22.6189C4.49015 22.4822 4.49901 22.3346 4.55802 22.204C4.69951 21.8129 4.86597 21.4383 5.0241 21.0471C5.91743 18.8277 6.81353 16.6277 7.7124 14.4471L7.84557 14.1141ZM10.8501 9.8861H16.4515C16.5762 9.87755 16.7013 9.87755 16.826 9.8861C16.9477 9.8773 17.069 9.90807 17.1718 9.97381C17.2746 10.0395 17.3533 10.1367 17.3964 10.2509C17.4394 10.3651 17.4444 10.4901 17.4106 10.6073C17.3768 10.7246 17.3061 10.8278 17.2089 10.9015C17.134 11.0014 17.0424 11.0929 16.9592 11.1845L10.7087 17.5598L10.4673 17.8262H21.104C21.5784 17.8262 21.6616 17.7513 21.6616 17.2769C21.6616 15.321 21.6616 13.3734 21.6616 11.4508C21.6616 9.87778 21.6616 8.29642 21.6616 6.72339C21.6616 6.35718 21.5534 6.24066 21.2122 6.24066H12.5647C12.4988 6.23041 12.4315 6.24524 12.376 6.28223C12.3205 6.31921 12.2809 6.37566 12.265 6.44041C12.0653 6.95643 11.8572 7.46413 11.6491 7.97183L10.8501 9.8861ZM9.08569 11.0763L11.8905 4.24316L3.33455 12.899V12.9739H9.53513L6.80521 19.807H6.85514L15.3778 11.0763H9.08569ZM22.8518 10.6268V13.3984H23.6841V10.6268H22.8518Z" fill="black"/>
<path id="Vector_2" d="M0.554932 6.18239V5.07544H5.44049V6.19903L0.554932 6.18239Z" fill="black"/>
<path id="Vector_3" d="M5.14082 17.843V18.9749H0.571533V17.843H5.14082Z" fill="black"/>
</g>
</svg>
