<svg width="25" height="28" viewBox="0 0 25 28" fill="none" xmlns="http://www.w3.org/2000/svg">
<g id="Group 3">
<path id="Vector" d="M12.3667 10.0642H12.7377C14.0532 10.0642 15.3799 10.0642 16.6953 10.0642C17.2945 10.0497 17.8772 10.2615 18.3273 10.6574C18.7774 11.0533 19.0618 11.6042 19.1238 12.2004C19.1658 12.4912 19.1486 12.7875 19.0733 13.0715C18.9979 13.3555 18.866 13.6214 18.6853 13.8531C15.6047 17.9531 12.5166 22.0493 9.42104 26.1418C9.09502 26.6078 8.60963 26.9383 8.05656 27.0709C7.50349 27.2034 6.92102 27.1289 6.41915 26.8613C5.91514 26.6159 5.51374 26.2008 5.28549 25.6888C5.05725 25.1768 5.01677 24.6007 5.17117 24.0618C5.68835 22.0381 6.21678 20.0256 6.7452 18.0018L6.8239 17.6758H6.45288C5.13744 17.6758 3.822 17.6758 2.50656 17.6758C2.10282 17.6834 1.70364 17.5893 1.34581 17.4022C0.987981 17.215 0.683021 16.9408 0.459022 16.6048C0.235023 16.2688 0.0991967 15.8818 0.0640586 15.4795C0.0289206 15.0772 0.0955954 14.6726 0.257951 14.3028C0.325629 14.1582 0.404573 14.0191 0.494054 13.8868L9.76958 1.64315C10.0354 1.2842 10.3959 1.00632 10.8106 0.840623C11.2254 0.674929 11.6781 0.627969 12.1181 0.704991C12.5581 0.782013 12.9679 0.979976 13.3017 1.27673C13.6355 1.57347 13.8802 1.95729 14.0082 2.3852C14.1485 2.83932 14.1485 3.32521 14.0082 3.77933L12.4567 9.69318C12.4342 9.80562 12.4005 9.91805 12.3667 10.0642ZM5.39603 15.5958H8.11685C8.29616 15.5679 8.47966 15.5876 8.64893 15.653C8.8182 15.7184 8.96728 15.8272 9.0812 15.9685C9.19512 16.1098 9.26988 16.2785 9.29795 16.4578C9.32603 16.6371 9.30644 16.8206 9.24116 16.9899L8.02691 21.6558C7.77956 22.6227 7.53221 23.5896 7.27362 24.5565C7.23416 24.6357 7.22735 24.7272 7.25469 24.8113C7.28203 24.8954 7.34132 24.9654 7.41978 25.0062C7.4593 25.0298 7.50322 25.045 7.54883 25.0509C7.59445 25.0568 7.64079 25.0534 7.68502 25.0408C7.72925 25.0281 7.77043 25.0066 7.80602 24.9774C7.84161 24.9483 7.87087 24.9122 7.89199 24.8713L8.02691 24.6914C9.37607 22.915 10.7177 21.1311 12.0519 19.3397L16.9764 12.8075C17.19 12.5264 17.1788 12.2903 16.9764 12.1779C16.85 12.1547 16.7205 12.1547 16.5941 12.1779H11.1637C10.9839 12.2033 10.8005 12.1815 10.6316 12.1145C10.4628 12.0475 10.3143 11.9376 10.2009 11.7958C10.0874 11.6539 10.0128 11.485 9.98451 11.3055C9.9562 11.1261 9.97512 10.9424 10.0394 10.7725C10.4104 9.35589 10.7815 7.93927 11.1637 6.52264C11.456 5.39834 11.7484 4.27403 12.0182 3.14972C12.0357 3.07118 12.0347 2.98964 12.0152 2.91156C11.9957 2.83349 11.9582 2.76105 11.9058 2.7C11.7371 2.57633 11.5347 2.70001 11.3998 2.84617L11.3099 2.98108L2.31543 14.9212C2.22549 15.0449 2.13554 15.2922 2.19176 15.3934C2.31533 15.5137 2.48029 15.5821 2.65273 15.5845C3.56342 15.607 4.48534 15.5958 5.39603 15.5958Z" fill="black"/>
<path id="Vector_2" d="M14.0642 26.288C14.101 26.1198 14.1498 25.9544 14.2104 25.7933C15.5483 22.6452 16.9087 19.4971 18.2466 16.3491C18.3207 16.1391 18.4599 15.9582 18.6439 15.8329C18.828 15.7075 19.0472 15.6441 19.2698 15.652C19.4875 15.6464 19.7015 15.7097 19.8812 15.8328C20.0608 15.956 20.1971 16.1327 20.2704 16.3379L24.3291 25.8157C24.3947 25.9433 24.4334 26.083 24.4427 26.2261C24.4521 26.3692 24.4319 26.5127 24.3833 26.6477C24.3348 26.7827 24.2591 26.9063 24.1608 27.0107C24.0625 27.1152 23.9437 27.1983 23.8119 27.2549C23.6787 27.3083 23.5359 27.3341 23.3924 27.3305C23.2488 27.327 23.1075 27.2942 22.9771 27.2342C22.8466 27.1743 22.7297 27.0883 22.6336 26.9817C22.5374 26.8751 22.464 26.75 22.4178 26.614C22.148 26.0181 21.8894 25.411 21.642 24.8039C21.6235 24.7276 21.578 24.6606 21.5139 24.6151C21.4499 24.5697 21.3716 24.5489 21.2935 24.5565C19.9443 24.5565 18.5952 24.5565 17.246 24.5565C17.162 24.549 17.0781 24.5722 17.0098 24.6218C16.9416 24.6714 16.8937 24.7441 16.875 24.8264C16.6164 25.456 16.3466 26.0968 16.0542 26.7264C15.9598 26.936 15.7975 27.1077 15.5935 27.2138C15.3895 27.3198 15.1558 27.3541 14.9299 27.3111C14.6949 27.256 14.4839 27.1269 14.328 26.9426C14.1721 26.7584 14.0796 26.5288 14.0642 26.288ZM19.2585 19.2498L17.8981 22.4766H20.6302L19.2585 19.2498Z" fill="black"/>
</g>
</svg>
