<svg width="26" height="28" viewBox="0 0 26 28" fill="none" xmlns="http://www.w3.org/2000/svg">
<g id="Group 4">
<path id="Vector" d="M0.554932 10.6988C0.564309 7.88347 1.07011 5.09185 2.04909 2.45219C2.06935 2.35503 2.10901 2.26296 2.1657 2.18148C2.22239 2.10001 2.29493 2.03083 2.379 1.97806C2.46307 1.9253 2.55692 1.89004 2.65493 1.87441C2.75295 1.85878 2.85311 1.8631 2.94942 1.8871C6.15571 2.28742 9.41085 1.83137 12.3837 0.56534C12.5174 0.497974 12.665 0.462891 12.8147 0.462891C12.9644 0.462891 13.112 0.497974 13.2457 0.56534C15.8792 1.82409 18.8484 2.20027 21.7126 1.63806C21.8842 1.58228 22.0707 1.59499 22.2331 1.67353C22.3956 1.75207 22.5213 1.89036 22.5842 2.0595C25.0266 7.09749 25.8215 12.26 23.7814 17.6428L23.7144 17.8152C23.5899 18.16 23.3696 18.3803 22.996 18.2079C22.6225 18.0355 22.68 17.7673 22.8141 17.4512C23.442 15.9258 23.8172 14.3083 23.9251 12.6623C24.089 9.71447 23.5848 6.76772 22.4501 4.04213C22.3303 3.5581 22.1045 3.10667 21.7892 2.72038C21.4444 2.42346 20.8314 2.72038 20.41 2.72038C17.95 2.92713 15.4774 2.51558 13.217 1.52313C13.0816 1.46176 12.9346 1.43001 12.786 1.43001C12.6373 1.43001 12.4903 1.46176 12.3549 1.52313C9.50376 2.6556 6.42625 3.10181 3.37085 2.82573C3.07393 2.82573 2.90153 2.82573 2.79617 3.15138C1.21581 7.94035 0.880584 12.7293 2.89195 17.4417C3.78053 19.5025 5.07574 21.3629 6.70008 22.9116C8.32441 24.4602 10.2445 25.6652 12.3454 26.4545C12.4485 26.4897 12.5577 26.5037 12.6664 26.4954C12.775 26.4872 12.8809 26.457 12.9775 26.4066C16.2516 25.2838 19.1008 23.1804 21.1379 20.3821C21.3486 20.1043 21.5785 19.8649 21.9233 20.1235C22.2681 20.3821 22.134 20.679 21.9233 20.9568C19.669 24.0513 16.4788 26.3382 12.8243 27.4793C12.6206 27.5566 12.3958 27.5566 12.1921 27.4793C6.10056 24.9891 2.1736 20.6694 0.861425 14.1277C0.666584 12.9949 0.564082 11.8482 0.554932 10.6988Z" fill="black" stroke="black" stroke-width="0.590838" stroke-miterlimit="10"/>
<path id="Vector_2" d="M17.2586 9.86552C16.4062 9.86552 16.3775 9.86551 16.4158 9.02266C16.4826 8.42392 16.4073 7.81787 16.1959 7.25371C15.9846 6.68955 15.6431 6.18319 15.1994 5.77574C14.7489 5.3429 14.1885 5.04174 13.5789 4.90497C12.9693 4.7682 12.3339 4.80104 11.7417 4.99993C11.1701 5.19774 10.6631 5.54738 10.275 6.01138C9.88693 6.47539 9.63244 7.03625 9.53881 7.63386C9.47177 7.91162 9.53881 8.17023 9.81657 8.266C10.0943 8.36178 10.3529 8.26599 10.4679 7.91161C10.4679 7.79668 10.5541 7.69133 10.5924 7.57639C10.6914 7.09232 10.9482 6.65477 11.3226 6.33237C11.697 6.00996 12.1678 5.82093 12.6612 5.7949C13.1937 5.7812 13.7184 5.9247 14.1698 6.20747C14.6212 6.49024 14.9793 6.89973 15.1994 7.38482C15.4091 8.00064 15.5001 8.65067 15.4675 9.30041C15.4675 9.76973 15.3335 9.85594 14.8929 9.84636C12.575 9.84636 10.2572 9.84636 7.93929 9.84636C7.77483 9.82004 7.60648 9.83309 7.44804 9.88443C7.2896 9.93577 7.14559 10.0239 7.02782 10.1417C6.91005 10.2595 6.82188 10.4035 6.77054 10.5619C6.7192 10.7204 6.70616 10.8887 6.73248 11.0532C6.73248 13.8499 6.73248 16.6499 6.73248 19.453C6.73248 20.315 7.10602 20.6886 7.96803 20.6886H17.3257C18.4271 20.6886 18.7624 20.3629 18.7624 19.2806V11.3692C18.7624 10.1528 18.475 9.86552 17.2586 9.86552ZM17.795 19.2519C17.795 19.6446 17.6896 19.7595 17.2969 19.7595C14.2607 19.7595 11.2149 19.7595 8.17874 19.7595C7.76689 19.7595 7.69027 19.6158 7.69027 19.2423C7.69027 16.5988 7.69027 13.9617 7.69027 11.3309C7.69027 10.9382 7.8052 10.8137 8.1979 10.8233C9.71121 10.8233 11.2341 10.8233 12.7474 10.8233C14.2607 10.8233 15.7453 10.8233 17.249 10.8233C17.6417 10.8233 17.8046 10.8904 17.795 11.3405C17.7758 13.9744 17.7758 16.6179 17.795 19.2519ZM13.1497 12.1929C12.6761 12.0964 12.1838 12.1679 11.7572 12.3952C11.3307 12.6224 10.9967 12.9912 10.8127 13.4381C10.6196 13.8625 10.588 14.3429 10.7237 14.789C10.8595 15.2351 11.1534 15.6164 11.5502 15.8613C11.8128 15.9628 12.0286 16.1579 12.1559 16.409C12.2833 16.6601 12.3131 16.9495 12.2398 17.2214C12.2398 17.365 12.2398 17.4991 12.2398 17.6428C12.2398 17.978 12.3835 18.1887 12.7378 18.1792C13.0922 18.1696 13.1976 17.9684 13.2167 17.6811C13.2359 17.3813 13.2359 17.0806 13.2167 16.7808C13.1804 16.6186 13.2066 16.4486 13.29 16.3048C13.3735 16.161 13.508 16.054 13.6669 16.005C13.9809 15.8605 14.25 15.6338 14.4456 15.3488C14.6412 15.0638 14.756 14.7312 14.7779 14.3863C14.8074 13.8877 14.6603 13.3946 14.3626 12.9936C14.0649 12.5925 13.6355 12.3091 13.1497 12.1929ZM12.6804 15.277C12.5404 15.2746 12.4022 15.2443 12.2741 15.1878C12.1459 15.1313 12.0303 15.0499 11.934 14.9482C11.8377 14.8466 11.7626 14.7267 11.7131 14.5957C11.6637 14.4647 11.6408 14.3251 11.646 14.1852C11.6508 13.9038 11.7641 13.6352 11.9621 13.4353C12.1602 13.2355 12.4278 13.1198 12.7091 13.1124C13.0005 13.1149 13.2792 13.2318 13.4852 13.4378C13.6912 13.6438 13.8081 13.9225 13.8106 14.2139C13.8098 14.3624 13.7783 14.5091 13.7179 14.6448C13.6575 14.7805 13.5696 14.9021 13.4598 15.0021C13.3499 15.102 13.2205 15.178 13.0798 15.2254C12.939 15.2727 12.79 15.2903 12.6421 15.277H12.6804Z" fill="black" stroke="black" stroke-width="0.590838" stroke-miterlimit="10"/>
<path id="Vector_3" d="M13.1498 12.193C12.6763 12.0965 12.1839 12.168 11.7573 12.3952C11.3308 12.6225 10.9968 12.9913 10.8128 13.4381C10.6197 13.8626 10.5881 14.3429 10.7239 14.789C10.8596 15.2352 11.1535 15.6164 11.5503 15.8614C11.8129 15.9628 12.0287 16.158 12.156 16.4091C12.2834 16.6602 12.3133 16.9496 12.2399 17.2214C12.2399 17.3651 12.2399 17.4992 12.2399 17.6429C12.2399 17.9781 12.3836 18.1888 12.738 18.1792C13.0923 18.1696 13.1977 17.9685 13.2169 17.6812C13.236 17.3814 13.236 17.0807 13.2169 16.7809C13.1806 16.6186 13.2067 16.4487 13.2902 16.3049C13.3736 16.1611 13.5082 16.054 13.667 16.005C13.981 15.8606 14.2501 15.6338 14.4457 15.3489C14.6413 15.0639 14.7561 14.7313 14.7781 14.3864C14.8075 13.8878 14.6605 13.3947 14.3627 12.9936C14.065 12.5926 13.6356 12.3091 13.1498 12.193ZM12.6805 15.2771C12.5405 15.2747 12.4023 15.2443 12.2742 15.1879C12.146 15.1314 12.0304 15.05 11.9341 14.9483C11.8378 14.8466 11.7627 14.7268 11.7132 14.5958C11.6638 14.4647 11.641 14.3252 11.6461 14.1852C11.6509 13.9039 11.7642 13.6353 11.9623 13.4354C12.1603 13.2355 12.4279 13.1199 12.7092 13.1125C13.0006 13.115 13.2793 13.2318 13.4853 13.4379C13.6913 13.6439 13.8082 13.9226 13.8107 14.214C13.81 14.3625 13.7784 14.5092 13.718 14.6449C13.6576 14.7805 13.5697 14.9022 13.4599 15.0021C13.35 15.1021 13.2207 15.1781 13.0799 15.2254C12.9391 15.2728 12.7901 15.2904 12.6422 15.2771H12.6805Z" fill="black" stroke="black" stroke-width="0.590838" stroke-miterlimit="10"/>
<path id="Vector_4" d="M13.1498 12.193C12.6763 12.0965 12.1839 12.168 11.7573 12.3952C11.3308 12.6225 10.9968 12.9913 10.8128 13.4381C10.6197 13.8626 10.5881 14.3429 10.7239 14.789C10.8596 15.2352 11.1535 15.6164 11.5503 15.8614C11.8129 15.9628 12.0287 16.158 12.156 16.4091C12.2834 16.6602 12.3133 16.9496 12.2399 17.2214C12.2399 17.3651 12.2399 17.4992 12.2399 17.6429C12.2399 17.9781 12.3836 18.1888 12.738 18.1792C13.0923 18.1696 13.1977 17.9685 13.2169 17.6812C13.236 17.3814 13.236 17.0807 13.2169 16.7809C13.1806 16.6186 13.2067 16.4487 13.2902 16.3049C13.3736 16.1611 13.5082 16.054 13.667 16.005C13.981 15.8606 14.2501 15.6338 14.4457 15.3489C14.6413 15.0639 14.7561 14.7313 14.7781 14.3864C14.8075 13.8878 14.6605 13.3947 14.3627 12.9936C14.065 12.5926 13.6356 12.3091 13.1498 12.193ZM12.6805 15.2771C12.5405 15.2747 12.4023 15.2443 12.2742 15.1879C12.146 15.1314 12.0304 15.05 11.9341 14.9483C11.8378 14.8466 11.7627 14.7268 11.7132 14.5958C11.6638 14.4647 11.641 14.3252 11.6461 14.1852C11.6509 13.9039 11.7642 13.6353 11.9623 13.4354C12.1603 13.2355 12.4279 13.1199 12.7092 13.1125C13.0006 13.115 13.2793 13.2318 13.4853 13.4379C13.6913 13.6439 13.8082 13.9226 13.8107 14.214C13.81 14.3625 13.7784 14.5092 13.718 14.6449C13.6576 14.7805 13.5697 14.9022 13.4599 15.0021C13.35 15.1021 13.2207 15.1781 13.0799 15.2254C12.9391 15.2728 12.7901 15.2904 12.6422 15.2771H12.6805Z" fill="black" stroke="black" stroke-width="0.590838" stroke-miterlimit="10"/>
</g>
</svg>
