<svg width="25" height="16" viewBox="0 0 25 16" fill="none" xmlns="http://www.w3.org/2000/svg">
<g id="Group 1">
<path id="Vector" d="M0.0549316 11.3863C0.153464 10.8739 0.225719 10.355 0.350527 9.84259C1.02414 6.99021 2.70327 4.47619 5.08009 2.76139C5.46108 2.47893 5.73697 2.53805 5.96031 2.94531C6.11797 3.22121 6.28219 3.49053 6.43327 3.77299C6.47476 3.82752 6.50407 3.8903 6.51925 3.95711C6.53443 4.02392 6.53511 4.09321 6.52126 4.16031C6.5074 4.22741 6.47933 4.29076 6.43893 4.3461C6.39853 4.40143 6.34674 4.44747 6.28705 4.4811C6.22736 4.51474 6.16115 4.53519 6.09289 4.54109C6.02463 4.54698 5.9559 4.53818 5.89133 4.51527C5.82676 4.49237 5.76784 4.45589 5.71855 4.4083C5.66926 4.36071 5.63075 4.30311 5.6056 4.23938C5.51363 4.09486 5.42824 3.94378 5.32314 3.76642C3.00598 5.5872 1.48113 8.23216 1.06653 11.1498H6.54494C6.5769 11.1554 6.60967 11.1546 6.64131 11.1473C6.67294 11.1401 6.7028 11.1265 6.72913 11.1076C6.75546 11.0886 6.77772 11.0645 6.79459 11.0368C6.81147 11.0091 6.82263 10.9783 6.8274 10.9462C7.07111 10.1551 7.49111 9.42965 8.05577 8.82442C8.15431 8.71932 8.18058 8.6405 8.09518 8.51569C7.99087 8.35751 7.89653 8.19297 7.81272 8.02303C7.78081 7.96954 7.75974 7.9103 7.75072 7.84867C7.74169 7.78704 7.7449 7.72424 7.76015 7.66386C7.7754 7.60347 7.80239 7.54668 7.83959 7.49672C7.87679 7.44677 7.92346 7.40463 7.97695 7.37271C8.03043 7.34079 8.08967 7.31972 8.1513 7.3107C8.21293 7.30168 8.27573 7.30489 8.33611 7.32014C8.3965 7.33539 8.45329 7.36238 8.50325 7.39958C8.5532 7.43677 8.59534 7.48345 8.62726 7.53693C8.82432 7.86537 9.01482 8.19381 9.19875 8.52882C9.25666 8.62146 9.27861 8.73211 9.26046 8.83984C9.2423 8.94757 9.18529 9.04491 9.10022 9.11345C8.33714 9.81004 7.81308 10.7295 7.60252 11.741C7.58167 11.857 7.51825 11.961 7.42468 12.0327C7.33112 12.1044 7.21416 12.1386 7.09672 12.1285H0.587006C0.475951 12.1276 0.367344 12.0958 0.273363 12.0366C0.179382 11.9775 0.103745 11.8933 0.0549316 11.7935V11.3863Z" fill="black"/>
<path id="Vector_2" d="M16.6673 10.7162C16.1024 11.0381 15.5703 11.3402 15.0514 11.6556C15.012 11.6556 15.012 11.8263 15.0514 11.9052C15.2205 12.4887 15.1996 13.1109 14.9918 13.6819C14.784 14.2528 14.4 14.7428 13.8954 15.0812C13.3907 15.4195 12.7916 15.5886 12.1845 15.564C11.5774 15.5394 10.9939 15.3223 10.5183 14.9442C10.0427 14.5662 9.69968 14.0466 9.53878 13.4608C9.37788 12.8749 9.40746 12.253 9.62325 11.6851C9.83904 11.1171 10.2299 10.6325 10.7392 10.3013C11.2486 9.97009 11.85 9.80943 12.4567 9.84255C13.1634 9.88715 13.8273 10.1968 14.3157 10.7096L14.4536 10.8476H14.493L16.1681 9.88197C15.9382 9.63235 15.728 9.39587 15.5112 9.17253C15.4543 9.13166 15.4063 9.0797 15.37 9.01977C15.3337 8.95984 15.31 8.89319 15.3002 8.82383C15.2903 8.75447 15.2947 8.68385 15.3129 8.61621C15.3311 8.54857 15.3628 8.48531 15.4061 8.43025C16.4702 6.59098 17.5322 4.75389 18.592 2.919C18.6198 2.83685 18.6685 2.76336 18.7334 2.70577C18.7982 2.64818 18.877 2.60848 18.9618 2.59058C19.0467 2.57268 19.1347 2.5772 19.2173 2.60369C19.2999 2.63018 19.3742 2.67772 19.4328 2.74164C20.8196 3.73414 21.982 5.00741 22.8444 6.47866C23.7067 7.94991 24.2498 9.5862 24.4383 11.2811C24.4383 11.3468 24.4383 11.4191 24.4383 11.4913C24.4842 11.9052 24.2937 12.1482 23.8799 12.1482H17.4819C17.4144 12.1574 17.3457 12.1528 17.28 12.1348C17.2143 12.1167 17.1529 12.0856 17.0996 12.0433C17.0462 12.001 17.0019 11.9483 16.9694 11.8884C16.9369 11.8286 16.9168 11.7628 16.9104 11.695C16.8709 11.3468 16.7724 11.0709 16.6673 10.7162ZM19.2292 3.75981L16.398 8.66673L17.0155 9.40901L19.4919 7.98357C19.8138 7.79964 20.0897 7.83906 20.2408 8.09524C20.3918 8.35143 20.2933 8.62075 19.9583 8.81124L18.7168 9.52725L17.4884 10.2433C17.5911 10.4739 17.6788 10.7108 17.7512 10.9527C17.7972 11.1235 17.876 11.1497 18.0336 11.1497H23.4923C23.0764 8.22921 21.5492 5.58192 19.2292 3.75981ZM12.2859 14.605C12.6621 14.6024 13.0291 14.4884 13.3406 14.2775C13.6522 14.0667 13.8943 13.7682 14.0365 13.4199C14.1786 13.0716 14.2145 12.689 14.1395 12.3204C14.0645 11.9517 13.8821 11.6135 13.6151 11.3484C13.3482 11.0833 13.0088 10.9032 12.6396 10.8307C12.2704 10.7583 11.8881 10.7968 11.5408 10.9413C11.1934 11.0859 10.8967 11.3301 10.688 11.643C10.4792 11.956 10.3678 12.3238 10.3678 12.7C10.3687 12.951 10.419 13.1994 10.5158 13.431C10.6127 13.6626 10.7542 13.8728 10.9323 14.0497C11.1104 14.2266 11.3216 14.3667 11.5539 14.462C11.7861 14.5572 12.0349 14.6058 12.2859 14.605Z" fill="black"/>
<path id="Vector_3" d="M17.7118 2.03872C17.6869 2.12695 17.6539 2.21271 17.6133 2.29491C16.5448 4.1517 15.4719 6.01068 14.3946 7.87185C14.3704 7.93354 14.3338 7.98956 14.2869 8.03637C14.24 8.08319 14.184 8.11978 14.1223 8.14385C14.0605 8.16792 13.9945 8.17894 13.9283 8.17622C13.8621 8.1735 13.7972 8.15709 13.7377 8.12803C12.7913 7.82574 11.7741 7.82574 10.8277 8.12803C10.7666 8.15462 10.7008 8.16854 10.6342 8.16898C10.5677 8.16941 10.5017 8.15634 10.4403 8.13055C10.3789 8.10476 10.3233 8.0668 10.277 8.01895C10.2307 7.97109 10.1946 7.91435 10.1708 7.85214C9.10229 5.99973 8.03376 4.14951 6.96523 2.30148C6.9143 2.23867 6.87984 2.16416 6.86498 2.08468C6.85011 2.0052 6.85531 1.92327 6.88009 1.84631C6.90488 1.76934 6.94847 1.69977 7.00692 1.64391C7.06537 1.58804 7.13684 1.54763 7.21484 1.52635C8.86247 0.772998 10.6586 0.400306 12.4699 0.435927C14.1353 0.46073 15.7782 0.825067 17.298 1.50665C17.4167 1.5361 17.522 1.60457 17.597 1.70107C17.6721 1.79756 17.7125 1.91648 17.7118 2.03872ZM8.04252 2.20951C8.07748 2.28411 8.11697 2.3565 8.16076 2.42628C9.02127 3.92398 9.89493 5.42167 10.7489 6.92594C10.7753 6.99364 10.8274 7.04818 10.8938 7.0777C10.9602 7.10722 11.0356 7.10933 11.1036 7.08359C11.8879 6.90088 12.7038 6.90088 13.4881 7.08359C13.5217 7.09725 13.5576 7.104 13.5939 7.10342C13.6301 7.10285 13.6659 7.09496 13.699 7.08024C13.7321 7.06552 13.7619 7.04427 13.7866 7.01775C13.8113 6.99124 13.8304 6.96001 13.8428 6.92594C14.7033 5.4151 15.577 3.91084 16.4703 2.40658C16.4703 2.34746 16.5295 2.28177 16.5689 2.20294C13.8264 1.10069 10.7636 1.10304 8.02281 2.20951H8.04252Z" fill="black"/>
<path id="Vector_4" d="M7.11635 6.38751C7.02255 6.38618 6.93127 6.35697 6.85411 6.30361C6.77694 6.25026 6.71739 6.17516 6.68302 6.08787C6.64866 6.00058 6.64103 5.90504 6.6611 5.8134C6.68118 5.72176 6.72805 5.63816 6.79576 5.57324C6.86347 5.50831 6.94896 5.46498 7.04136 5.44877C7.13376 5.43255 7.2289 5.44419 7.31467 5.48218C7.40044 5.52018 7.47298 5.58283 7.52305 5.66216C7.57313 5.74149 7.59847 5.83392 7.59588 5.9277C7.59243 6.05199 7.54019 6.16992 7.45044 6.25598C7.3607 6.34203 7.24068 6.38929 7.11635 6.38751Z" fill="black"/>
</g>
</svg>
